<svg width="1421" height="221" viewBox="0 0 1421 221" fill="none" xmlns="http://www.w3.org/2000/svg">
<rect x="-19" width="1440" height="220.5" fill="#5C4EAE"/>
<mask id="mask0_1_16794" style="mask-type:alpha" maskUnits="userSpaceOnUse" x="-19" y="0" width="1440" height="221">
<rect x="-19" width="1440" height="220.5" fill="#201F1F"/>
</mask>
<g mask="url(#mask0_1_16794)">
<path opacity="0.2" d="M1543.55 -80.8447C1520.07 -78.6528 1494.57 -78.3091 1471.69 -73.183C1449.3 -68.1671 1425.73 -59.0673 1406.03 -49.4564C1369.74 -31.7454 1351.15 -6.95103 1334.28 22.6297C1306.45 71.4467 1296.37 122.078 1295.94 175.123C1295.65 210.239 1297 244.997 1300.67 279.998C1301.78 290.684 1301.23 302.9 1309.07 312.128" stroke="#A596FF" stroke-width="4.44874" stroke-linecap="round"/>
<path opacity="0.2" d="M1591 -55.6357C1566.82 -53.3776 1540.56 -53.0235 1516.99 -47.7427C1493.94 -42.5754 1469.66 -33.2008 1449.37 -23.2998C1411.99 -5.05417 1392.84 20.4887 1375.47 50.9625C1346.8 101.253 1336.43 153.413 1335.98 208.059C1335.68 244.235 1337.07 280.042 1340.85 316.1C1342 327.109 1341.42 339.694 1349.5 349.2" stroke="#A596FF" stroke-width="4.44874" stroke-linecap="round"/>
<path opacity="0.2" d="M350.68 577.878C356.051 546.413 363.885 516.817 361.878 482.89C360.444 458.658 354.443 434.809 342.905 412.054C321.393 369.626 293.272 329.18 259.84 296.952C225.679 264.021 192.142 228.189 153.566 202.9C117.7 179.387 79.446 159.962 44.4785 134.41C-14.1103 91.5978 -55.5779 23.2802 -90.7742 -42.2882C-109.394 -76.9764 -127.862 -111.901 -145.689 -147.001C-156.875 -169.027 -166.273 -192.647 -180.028 -213.115" stroke="#A596FF" stroke-width="4.01667" stroke-linecap="round"/>
<path opacity="0.2" d="M394.34 566.6C400.134 532.606 408.589 500.633 406.415 463.977C404.861 437.797 398.374 412.03 385.907 387.442C362.662 341.6 332.28 297.896 296.163 263.07C259.258 227.484 223.027 188.764 181.355 161.433C142.61 136.023 101.288 115.028 63.5135 87.4146C0.221892 41.1481 -44.5823 -32.6707 -82.6122 -103.518C-102.731 -140.999 -122.686 -178.735 -141.948 -216.66C-154.036 -240.46 -164.191 -265.98 -179.052 -288.097" stroke="#A596FF" stroke-width="4.01667" stroke-linecap="round"/>
</g>
</svg>
