<svg width="24" height="23" viewBox="0 0 24 23" fill="none" xmlns="http://www.w3.org/2000/svg">
<path fill-rule="evenodd" clip-rule="evenodd" d="M12.7008 0.294884L15.9826 7.26932L23.3188 8.38799C23.5087 8.41751 23.6662 8.55695 23.7254 8.7479C23.7845 8.93886 23.7351 9.14837 23.5978 9.28867L18.2903 14.7163L19.5434 22.3818C19.5764 22.5795 19.499 22.7796 19.3438 22.8977C19.1886 23.0158 18.9827 23.0315 18.8129 22.938L12.2507 19.3196L5.68864 22.9391C5.51888 23.0328 5.31286 23.0174 5.15761 22.8994C5.00235 22.7813 4.92494 22.5811 4.95807 22.3834L6.21118 14.7163L0.902187 9.28867C0.764878 9.14837 0.71545 8.93886 0.774607 8.7479C0.833764 8.55695 0.991294 8.41751 1.18121 8.38799L8.5174 7.26932L11.8007 0.294884C11.8843 0.114543 12.0591 0 12.2507 0C12.4424 0 12.6172 0.114543 12.7008 0.294884Z" fill="#F59E0B"/>
</svg>
