<svg width="47" height="30" viewBox="0 0 47 30" fill="none" xmlns="http://www.w3.org/2000/svg">
<path fill-rule="evenodd" clip-rule="evenodd" d="M0.877319 14.9997C0.877319 14.0792 1.62351 13.333 2.54398 13.333L42.5454 13.333C43.4659 13.333 44.2121 14.0792 44.2121 14.9997C44.2121 15.9201 43.4659 16.6663 42.5454 16.6663L2.54398 16.6663C1.62351 16.6663 0.877319 15.9201 0.877319 14.9997Z" fill="#605E5E"/>
<path fill-rule="evenodd" clip-rule="evenodd" d="M32.5886 0.386359C33.2957 -0.202926 34.3467 -0.107406 34.9359 0.599709L45.4546 13.2217C46.3131 14.2518 46.3131 15.7482 45.4546 16.7783L34.9359 29.4003C34.3467 30.1074 33.2957 30.2029 32.5886 29.6136C31.8815 29.0244 31.786 27.9734 32.3752 27.2663L42.5976 15L32.3753 2.7337C31.786 2.02658 31.8815 0.975644 32.5886 0.386359Z" fill="#605E5E"/>
</svg>
