<svg width="47" height="30" viewBox="0 0 47 30" fill="none" xmlns="http://www.w3.org/2000/svg">
<path fill-rule="evenodd" clip-rule="evenodd" d="M46.0981 15.0003C46.0981 15.9208 45.3519 16.667 44.4314 16.667L4.43 16.667C3.50953 16.667 2.76334 15.9208 2.76334 15.0003C2.76334 14.0799 3.50953 13.3337 4.43 13.3337L44.4314 13.3337C45.3519 13.3337 46.0981 14.0799 46.0981 15.0003Z" fill="#CECECE"/>
<path fill-rule="evenodd" clip-rule="evenodd" d="M14.3869 29.6136C13.6797 30.2029 12.6288 30.1074 12.0395 29.4003L1.52082 16.7783C0.662332 15.7482 0.662335 14.2518 1.52082 13.2217L12.0395 0.59971C12.6288 -0.107407 13.6797 -0.202927 14.3869 0.38636C15.094 0.975645 15.1895 2.02658 14.6002 2.7337L4.37791 15L14.6002 27.2663C15.1895 27.9734 15.094 29.0244 14.3869 29.6136Z" fill="#CECECE"/>
</svg>
